<?xml version="1.0" standalone="no"?>
<!DOCTYPE svg PUBLIC "-//W3C//DTD SVG 20010904//EN"
 "http://www.w3.org/TR/2001/REC-SVG-20010904/DTD/svg10.dtd">
<svg version="1.0" xmlns="http://www.w3.org/2000/svg"
 width="700.000000pt" height="700.000000pt" viewBox="0 0 700.000000 700.000000"
 preserveAspectRatio="xMidYMid meet">
<metadata>
Created by potrace 1.14, written by Peter Selinger 2001-2017
</metadata>
<g transform="translate(0.000000,700.000000) scale(0.100000,-0.100000)"
fill="#000000" stroke="none">
<path d="M4474 6989 c-85 -25 -180 -121 -204 -207 -6 -23 -10 -270 -10 -669 0
-499 -3 -633 -12 -634 -7 0 -749 -2 -1648 -3 -899 -1 -1648 -6 -1665 -10 -201
-49 -374 -201 -441 -387 -15 -43 -17 -51 -30 -114 -12 -57 -10 -3473 2 -3544
6 -37 25 -99 41 -138 l30 -71 -44 -7 c-59 -9 -168 -54 -225 -93 -158 -109
-256 -284 -263 -472 -7 -180 46 -325 166 -451 73 -76 153 -127 266 -167 45
-16 253 -17 3033 -19 1816 -1 3004 1 3033 7 189 37 348 160 432 334 53 109 65
170 60 296 -8 203 -114 382 -290 489 -58 36 -183 81 -221 81 -24 0 -24 0 -9
31 24 45 56 147 62 199 3 25 6 823 6 1775 0 1927 5 1784 -69 1931 -69 139
-195 247 -349 300 l-80 28 -415 3 c-228 1 -424 2 -435 2 -20 1 -20 8 -20 643
l0 643 -26 55 c-30 65 -86 122 -149 153 -42 21 -60 22 -270 24 -124 1 -239 -2
-256 -8z"/>
</g>
</svg>
